<svg xmlns="http://www.w3.org/2000/svg"  viewBox="0 0 50 50" width="50px" height="50px" baseProfile="basic"><path fill="#af87ce" d="M25,48C12.318,48,2,37.683,2,25S12.318,2,25,2s23,10.317,23,23S37.682,48,25,48z M25,6 C14.523,6,6,14.523,6,25s8.523,19,19,19s19-8.523,19-19S35.477,6,25,6z"/><path fill="#af87ce" d="M25,32c-6.617,0-12-4.528-12-10.095c0-1.765,0.546-3.486,1.586-5.015l0.702-6.771l5.557,2.317 c2.672-0.832,5.639-0.832,8.311,0l5.557-2.317l0.702,6.771c1.04,1.528,1.586,3.25,1.586,5.015C37,27.472,31.617,32,25,32z M18.712,15.881l-0.261,2.52l-0.347,0.449C17.372,19.801,17,20.828,17,21.905C17,25.266,20.589,28,25,28s8-2.734,8-6.095 c0-1.077-0.372-2.104-1.104-3.056L31.549,18.4l-0.261-2.52l-2.028,0.847l-0.744-0.282c-2.23-0.844-4.802-0.844-7.032,0 l-0.744,0.282L18.712,15.881z"/><path fill="#af87ce" d="M33,46h-4V36c0-2.206-1.794-4-4-4s-4,1.794-4,4v10h-4V36c0-4.411,3.589-8,8-8s8,3.589,8,8V46z"/><path fill="#af87ce" d="M18.391,40.44c-6.794-3.519-9.19-10.512-9.289-10.808l3.793-1.271 c0.02,0.058,2.016,5.771,7.335,8.526L18.391,40.44z"/><path fill="#742bc9" d="M17,42.209v4.353c1.283,0.478,2.621,0.839,4,1.082v-4.077C19.601,43.267,18.267,42.801,17,42.209z"/><path fill="#742bc9" d="M29,43.568v4.077c1.379-0.243,2.717-0.604,4-1.082v-4.353C31.733,42.801,30.399,43.267,29,43.568z"/></svg>